<svg width="215" height="211" viewBox="0 0 215 211" fill="none" xmlns="http://www.w3.org/2000/svg">
<path d="M27.5368 33.1049V6.78515C27.5368 3.14787 30.5159 0.205322 34.1993 0.205322C37.8809 0.205322 40.86 3.14787 40.86 6.78515V33.1049C40.86 36.7413 37.8809 39.6839 34.1993 39.6839C30.5159 39.6843 27.5368 36.7413 27.5368 33.1049ZM140.785 39.6843C144.466 39.6843 147.446 36.7418 147.446 33.1053V6.78515C147.446 3.14787 144.466 0.205322 140.785 0.205322C137.102 0.205322 134.121 3.14787 134.121 6.78515V33.1049C134.121 36.7413 137.102 39.6843 140.785 39.6843ZM214.061 158.119C214.061 187.191 190.199 210.759 160.768 210.759C131.339 210.759 107.476 187.191 107.476 158.119C107.476 129.051 131.338 105.482 160.768 105.482C190.199 105.482 214.061 129.05 214.061 158.119ZM200.739 158.119C200.739 136.352 182.81 118.641 160.768 118.641C138.729 118.641 120.8 136.351 120.8 158.119C120.8 179.89 138.729 197.598 160.768 197.598C182.81 197.598 200.739 179.89 200.739 158.119ZM54.1837 79.1628H27.5368V105.482H54.1837V79.1628ZM27.5368 144.961H54.1837V118.641H27.5368V144.961ZM67.5061 105.482H94.1535V79.1628H67.5061V105.482ZM67.5061 144.961H94.1535V118.641H67.5061V144.961ZM14.2144 156.81V66.0028H160.768V92.3225H174.092V40.9957C174.092 33.0021 167.637 26.5242 159.663 26.5242H154.107V33.1053C154.107 40.3526 148.134 46.2646 140.785 46.2646C133.435 46.2646 127.462 40.3526 127.462 33.1053V26.5242H47.5212V33.1053C47.5212 40.3526 41.5493 46.2646 34.1997 46.2646C26.8483 46.2646 20.876 40.3526 20.876 33.1053V26.5242H15.3264C7.35156 26.5242 0.890709 33.0021 0.890709 40.9957V156.811C0.890709 164.778 7.35156 171.281 15.3264 171.281H94.1535V158.119H15.3264C14.7227 158.119 14.2144 157.503 14.2144 156.81ZM134.121 105.482V79.1628H107.476V105.482H134.121ZM180.753 158.119H160.768V138.379C160.768 134.744 157.789 131.801 154.106 131.801C150.424 131.801 147.446 134.744 147.446 138.379V164.701C147.446 168.336 150.424 171.28 154.106 171.28H180.753C184.436 171.28 187.415 168.336 187.415 164.701C187.415 161.063 184.436 158.119 180.753 158.119Z" fill="black"/>
</svg>
