<svg width="248" height="248" viewBox="0 0 248 248" fill="none" xmlns="http://www.w3.org/2000/svg">
<path d="M170.5 147.25C168.478 147.262 166.531 146.483 165.075 145.08L132.215 113.305C127.17 108.479 123.154 102.681 120.411 96.261C117.668 89.8408 116.254 82.9315 116.254 75.9499C116.254 68.9682 117.668 62.0589 120.411 55.6388C123.154 49.2187 127.17 43.4208 132.215 38.5949C142.543 28.7765 156.249 23.3015 170.5 23.3015C184.751 23.3015 198.456 28.7765 208.785 38.5949C213.83 43.4208 217.846 49.2187 220.589 55.6388C223.332 62.0589 224.746 68.9682 224.746 75.9499C224.746 82.9315 223.332 89.8408 220.589 96.261C217.846 102.681 213.83 108.479 208.785 113.305L175.925 145.08C174.469 146.483 172.522 147.262 170.5 147.25ZM170.5 38.7499C160.244 38.6871 150.371 42.6366 142.987 49.7549C139.432 53.129 136.601 57.1915 134.667 61.695C132.732 66.1984 131.734 71.0485 131.734 75.9499C131.734 80.8513 132.732 85.7014 134.667 90.2048C136.601 94.7082 139.432 98.7707 142.987 102.145L170.5 128.727L198.012 102.145C201.568 98.7707 204.399 94.7082 206.333 90.2048C208.268 85.7014 209.266 80.8513 209.266 75.9499C209.266 71.0485 208.268 66.1984 206.333 61.695C204.399 57.1915 201.568 53.129 198.012 49.7549C190.62 42.6506 180.752 38.7035 170.5 38.7499Z" fill="black"/>
<path d="M85.25 224.75C83.8924 224.759 82.5561 224.412 81.375 223.742L27.125 192.742C25.9423 192.059 24.9611 191.076 24.2806 189.892C23.6001 188.708 23.2446 187.365 23.25 186V46.4998C23.2446 45.1342 23.6001 43.7914 24.2806 42.6073C24.9611 41.4233 25.9423 40.4401 27.125 39.7573C28.3031 39.0771 29.6396 38.719 31 38.719C32.3604 38.719 33.6969 39.0771 34.875 39.7573L89.125 70.7573C90.3077 71.4401 91.2889 72.4233 91.9694 73.6073C92.6499 74.7914 93.0054 76.1342 93 77.4998V217C93.0054 218.365 92.6499 219.708 91.9694 220.892C91.2889 222.076 90.3077 223.059 89.125 223.742C87.9439 224.412 86.6076 224.759 85.25 224.75ZM38.75 181.505L77.5 203.67V81.9948L38.75 59.8298V181.505Z" fill="black"/>
<path d="M85.25 224.75C83.8924 224.759 82.5561 224.412 81.375 223.742C80.1923 223.06 79.2111 222.076 78.5306 220.892C77.8501 219.708 77.4946 218.366 77.5 217V77.4999C77.4946 76.1343 77.8501 74.7915 78.5306 73.6074C79.2111 72.4234 80.1923 71.4402 81.375 70.7574L127.875 44.1749C128.764 43.6656 129.746 43.3377 130.762 43.2102C131.779 43.0826 132.811 43.158 133.798 43.4319C134.786 43.7057 135.709 44.1727 136.515 44.8058C137.32 45.4388 137.993 46.2254 138.493 47.1199C139.503 48.8994 139.768 51.0063 139.231 52.9809C138.694 54.9555 137.398 56.6375 135.625 57.6599L93 81.9949V203.67L135.625 179.257C136.51 178.749 137.487 178.419 138.5 178.288C139.513 178.156 140.542 178.226 141.528 178.492C142.514 178.758 143.437 179.216 144.246 179.84C145.055 180.463 145.734 181.239 146.243 182.125C146.751 183.01 147.081 183.987 147.212 185C147.343 186.013 147.274 187.042 147.008 188.028C146.741 189.013 146.284 189.937 145.66 190.746C145.037 191.555 144.26 192.234 143.375 192.742L89.125 223.742C87.9439 224.412 86.6076 224.759 85.25 224.75Z" fill="black"/>
<path d="M193.75 224.75C192.392 224.759 191.056 224.412 189.875 223.743L135.625 192.743C134.442 192.06 133.461 191.077 132.781 189.892C132.1 188.708 131.745 187.366 131.75 186V116.25C131.75 114.195 132.567 112.223 134.02 110.77C135.473 109.317 137.445 108.5 139.5 108.5C141.555 108.5 143.527 109.317 144.98 110.77C146.433 112.223 147.25 114.195 147.25 116.25V181.505L186 203.67V124C186 121.945 186.817 119.973 188.27 118.52C189.723 117.067 191.695 116.25 193.75 116.25C195.805 116.25 197.777 117.067 199.23 118.52C200.683 119.973 201.5 121.945 201.5 124V217C201.505 218.366 201.15 219.708 200.469 220.892C199.789 222.077 198.808 223.06 197.625 223.743C196.444 224.412 195.108 224.759 193.75 224.75Z" fill="black"/>
<path d="M170.5 100.75C165.902 100.75 161.406 99.3862 157.583 96.8314C153.76 94.2767 150.78 90.6455 149.02 86.3972C147.26 82.1488 146.8 77.474 147.697 72.9639C148.594 68.4539 150.808 64.3111 154.06 61.0595C157.311 57.808 161.454 55.5936 165.964 54.6965C170.474 53.7994 175.149 54.2598 179.397 56.0196C183.646 57.7793 187.277 60.7593 189.832 64.5828C192.386 68.4062 193.75 72.9014 193.75 77.4998C193.75 83.666 191.3 89.5798 186.94 93.94C182.58 98.3002 176.666 100.75 170.5 100.75ZM170.5 69.7498C168.967 69.7498 167.469 70.2043 166.194 71.0559C164.92 71.9075 163.927 73.1178 163.34 74.534C162.753 75.9501 162.6 77.5084 162.899 79.0117C163.198 80.5151 163.936 81.896 165.02 82.9798C166.104 84.0637 167.485 84.8018 168.988 85.1009C170.491 85.3999 172.05 85.2464 173.466 84.6598C174.882 84.0733 176.092 83.0799 176.944 81.8054C177.795 80.531 178.25 79.0326 178.25 77.4998C178.25 75.4443 177.434 73.4731 175.98 72.0197C174.527 70.5663 172.555 69.7498 170.5 69.7498Z" fill="black"/>
</svg>
