<svg width="212" height="212" viewBox="0 0 212 212" fill="none" xmlns="http://www.w3.org/2000/svg">
<path d="M6.62419 165.625H86.1246C89.7869 165.625 92.751 163.398 92.751 160.656V150.717C92.751 147.975 89.7869 145.75 86.1246 145.75H6.62419C2.96278 145.75 0 147.974 0 150.717V160.656C0 163.398 2.96278 165.625 6.62419 165.625ZM6.62419 192.126H86.1246C89.7869 192.126 92.751 189.899 92.751 187.157V177.218C92.751 174.475 89.7869 172.25 86.1246 172.25H6.62419C2.96278 172.25 0 174.475 0 177.218V187.157C0 189.899 2.96278 192.126 6.62419 192.126ZM6.62419 139.122H86.1246C89.7869 139.122 92.751 136.898 92.751 134.155V124.221C92.751 121.476 89.7869 119.249 86.1246 119.249H6.62419C2.96278 119.248 0 121.475 0 124.22V134.155C0 136.898 2.96278 139.122 6.62419 139.122ZM105.71 136.485C105.812 135.709 106 134.958 106 134.155V124.22C106 113.996 97.2714 105.999 86.1246 105.999H59.6247C59.6247 87.7028 74.4544 72.8749 92.751 72.8749C111.047 72.8749 125.876 87.7028 125.876 105.999C125.876 119.689 117.562 131.437 105.71 136.485ZM0 46.3742H185.501V165.625H105.211C105.683 164.047 106 162.389 106 160.656V152.375H145.751C145.751 137.74 157.617 125.874 172.25 125.874V86.1246C157.617 86.1246 145.751 74.2587 145.751 59.6248H39.7504C39.7504 74.2591 27.8858 86.1246 13.2506 86.1246V105.999H6.62419C4.27573 105.999 2.0767 106.426 0 107.073V46.3742ZM212 19.8743V152.375H198.752V33.1244H13.2506V19.8743H212Z" fill="black"/>
</svg>
