<svg width="50" height="50" viewBox="0 0 50 50" fill="none" xmlns="http://www.w3.org/2000/svg">
<path fill-rule="evenodd" clip-rule="evenodd" d="M25 50C11.1929 50 0 38.8071 0 25C0 11.1929 11.1929 0 25 0C38.8071 0 50 11.1929 50 25C50 38.8071 38.8071 50 25 50ZM25.8241 38.9089C34.0203 38.9055 40.6865 32.2378 40.6897 24.0432C40.6914 20.0711 39.1465 16.3363 36.3398 13.5265C33.5331 10.7166 29.8006 9.16839 25.8239 9.16667C17.63 9.16667 10.9612 15.8351 10.9579 24.0315C10.9569 26.6516 11.6414 29.2089 12.9423 31.4633L10.8333 39.1667L18.7139 37.0995C20.8852 38.2837 23.3299 38.908 25.8179 38.9089H25.8241Z" fill="black"/>
<path fill-rule="evenodd" clip-rule="evenodd" d="M19.079 34.4085L14.4026 35.6352L15.6508 31.0756L15.3571 30.6082C14.1202 28.641 13.467 26.3673 13.4679 24.0326C13.4706 17.2201 19.0134 11.6777 25.8289 11.6777C29.1291 11.6789 32.2314 12.9658 34.5643 15.3013C36.8971 17.6368 38.181 20.7411 38.1798 24.0426C38.177 30.8556 32.6343 36.3986 25.824 36.3986H25.819C23.6019 36.3976 21.4273 35.802 19.5302 34.6763L19.079 34.4085ZM33.3133 27.5785C33.2205 27.4236 32.9729 27.3307 32.6014 27.1446C32.23 26.9587 30.4038 26.0602 30.0633 25.9362C29.7229 25.8122 29.4751 25.7503 29.2276 26.122C28.98 26.4939 28.2681 27.3307 28.0514 27.5785C27.8348 27.8264 27.618 27.8574 27.2468 27.6715C26.8753 27.4855 25.6784 27.0934 24.2597 25.8278C23.1554 24.8428 22.4099 23.6266 22.1932 23.2547C21.9765 22.8828 22.1702 22.6818 22.3561 22.4966C22.5232 22.3301 22.7276 22.0626 22.9133 21.8459C23.099 21.629 23.1609 21.474 23.2847 21.2263C23.4085 20.9783 23.3466 20.7614 23.2537 20.5754C23.1609 20.3895 22.418 18.5612 22.1085 17.8174C21.807 17.0932 21.5008 17.1913 21.2728 17.1798C21.0563 17.169 20.8085 17.1667 20.5609 17.1667C20.3133 17.1667 19.9108 17.2596 19.5704 17.6315C19.2299 18.0034 18.2703 18.902 18.2703 20.7302C18.2703 22.5586 19.6013 24.3248 19.7871 24.5727C19.9728 24.8207 22.4062 28.5724 26.1324 30.1814C27.0186 30.5641 27.7104 30.7926 28.25 30.9638C29.1398 31.2466 29.9496 31.2067 30.5895 31.111C31.3032 31.0044 32.7871 30.2125 33.0968 29.3449C33.4061 28.4771 33.4061 27.7334 33.3133 27.5785Z" fill="black"/>
</svg>
